<mxfile host="app.diagrams.net" agent="Mozilla/5.0 (Windows NT 10.0; Win64; x64) AppleWebKit/537.36 (KHTML, like Gecko) Chrome/132.0.0.0 Safari/537.36 Edg/132.0.0.0" version="26.0.11">
  <diagram name="Page-1" id="_G9lPoWxat7-0CAS5zM7">
    <mxGraphModel dx="1426" dy="755" grid="1" gridSize="10" guides="1" tooltips="1" connect="1" arrows="1" fold="1" page="1" pageScale="1" pageWidth="827" pageHeight="1169" math="0" shadow="0">
      <root>
        <mxCell id="0" />
        <mxCell id="1" parent="0" />
        <mxCell id="5aYX-zWdXWkOe-InYHZb-1" value="" style="rounded=0;whiteSpace=wrap;html=1;fillColor=#ffe6cc;strokeColor=#d79b00;" vertex="1" parent="1">
          <mxGeometry x="154" y="90" width="150" height="90" as="geometry" />
        </mxCell>
        <mxCell id="5aYX-zWdXWkOe-InYHZb-2" value="&lt;font style=&quot;font-size: 16px;&quot;&gt;&lt;b&gt;libjvm.so&lt;/b&gt;&lt;/font&gt;" style="text;html=1;align=center;verticalAlign=middle;resizable=0;points=[];autosize=1;strokeColor=none;fillColor=none;" vertex="1" parent="1">
          <mxGeometry x="144" y="60" width="90" height="30" as="geometry" />
        </mxCell>
        <mxCell id="5aYX-zWdXWkOe-InYHZb-3" value="&lt;font style=&quot;font-size: 16px;&quot;&gt;jvmci.cpp&lt;/font&gt;" style="rounded=1;whiteSpace=wrap;html=1;fillColor=#d5e8d4;strokeColor=#82b366;" vertex="1" parent="1">
          <mxGeometry x="194" y="110" width="100" height="50" as="geometry" />
        </mxCell>
        <mxCell id="5aYX-zWdXWkOe-InYHZb-10" style="edgeStyle=orthogonalEdgeStyle;rounded=0;orthogonalLoop=1;jettySize=auto;html=1;exitX=1;exitY=0.5;exitDx=0;exitDy=0;entryX=0;entryY=0.5;entryDx=0;entryDy=0;" edge="1" parent="1" source="5aYX-zWdXWkOe-InYHZb-6" target="5aYX-zWdXWkOe-InYHZb-7">
          <mxGeometry relative="1" as="geometry" />
        </mxCell>
        <mxCell id="5aYX-zWdXWkOe-InYHZb-6" value="&lt;font style=&quot;font-size: 16px;&quot;&gt;jvmci.java&lt;/font&gt;" style="rounded=1;whiteSpace=wrap;html=1;fillColor=#dae8fc;strokeColor=#6c8ebf;" vertex="1" parent="1">
          <mxGeometry x="394" y="110" width="100" height="50" as="geometry" />
        </mxCell>
        <mxCell id="5aYX-zWdXWkOe-InYHZb-7" value="&lt;font style=&quot;font-size: 16px;&quot;&gt;Java Compiler&lt;/font&gt;" style="rounded=1;whiteSpace=wrap;html=1;fillColor=#f8cecc;strokeColor=#b85450;" vertex="1" parent="1">
          <mxGeometry x="564" y="110" width="120" height="50" as="geometry" />
        </mxCell>
        <mxCell id="5aYX-zWdXWkOe-InYHZb-8" value="" style="shape=flexArrow;endArrow=classic;startArrow=classic;html=1;rounded=0;exitX=1;exitY=0.5;exitDx=0;exitDy=0;entryX=0;entryY=0.5;entryDx=0;entryDy=0;endWidth=6;endSize=5;startWidth=6;startSize=5;strokeWidth=1;fontSize=2;spacing=0;width=6;" edge="1" parent="1" source="5aYX-zWdXWkOe-InYHZb-3" target="5aYX-zWdXWkOe-InYHZb-6">
          <mxGeometry width="100" height="100" relative="1" as="geometry">
            <mxPoint x="284" y="290" as="sourcePoint" />
            <mxPoint x="384" y="190" as="targetPoint" />
          </mxGeometry>
        </mxCell>
        <mxCell id="5aYX-zWdXWkOe-InYHZb-9" value="&lt;font style=&quot;font-size: 16px;&quot;&gt;JNI&lt;/font&gt;" style="text;html=1;align=center;verticalAlign=middle;resizable=0;points=[];autosize=1;strokeColor=none;fillColor=none;" vertex="1" parent="1">
          <mxGeometry x="319" y="98" width="50" height="30" as="geometry" />
        </mxCell>
        <mxCell id="5aYX-zWdXWkOe-InYHZb-11" value="import" style="text;html=1;align=center;verticalAlign=middle;resizable=0;points=[];autosize=1;strokeColor=none;fillColor=none;" vertex="1" parent="1">
          <mxGeometry x="494" y="98" width="60" height="30" as="geometry" />
        </mxCell>
      </root>
    </mxGraphModel>
  </diagram>
</mxfile>
